<!DOCTYPE svg PUBLIC "-//W3C//DTD SVG 1.1//EN" "http://www.w3.org/Graphics/SVG/1.1/DTD/svg11.dtd">
<!-- Uploaded to: SVG Repo, www.svgrepo.com, Transformed by: SVG Repo Mixer Tools -->
<svg version="1.1" id="Layer_1" xmlns="http://www.w3.org/2000/svg" xmlns:xlink="http://www.w3.org/1999/xlink" viewBox="0 0 512 512" xml:space="preserve" width="800px" height="800px" fill="#000000">
<g id="SVGRepo_bgCarrier" stroke-width="0"/>
<g id="SVGRepo_tracerCarrier" stroke-linecap="round" stroke-linejoin="round"/>
<g id="SVGRepo_iconCarrier"> <circle style="fill:#E9EDF1;" cx="256" cy="256" r="256"/> <rect x="74.872" y="146.472" style="fill:#FFFFFF;" width="362.24" height="257.68"/> <g> <polygon style="fill:#E9EDF1;" points="337.912,377.424 174.088,377.424 147.224,397.848 364.776,397.848 "/> <polygon style="fill:#E9EDF1;" points="153.448,377.424 106.232,377.424 79.368,397.848 126.68,397.848 "/> <polygon style="fill:#E9EDF1;" points="405.768,377.424 358.552,377.424 385.32,397.848 432.632,397.848 "/> <polygon style="fill:#E9EDF1;" points="337.912,173.744 174.088,173.744 147.224,153.32 364.776,153.32 "/> <polygon style="fill:#E9EDF1;" points="153.448,173.744 106.232,173.744 79.368,153.32 126.68,153.32 "/> <polygon style="fill:#E9EDF1;" points="405.768,173.744 358.552,173.744 385.32,153.32 432.632,153.32 "/> </g> <path style="fill:#FFFFFF;" d="M434.248,149.352v251.92H77.752v-251.92H434.248 M440,143.6H72v263.416h368V143.6L440,143.6z"/> <path style="fill:#333333;" d="M72,153.32v-45.808c0-6.328,5.176-11.504,11.504-11.504h344.968c6.328,0,11.504,5.176,11.504,11.504 v45.808H72L72,153.32z"/> <polygon style="fill:#FFFFFF;" points="410.976,140.48 195.288,140.48 215.92,108.848 410.976,108.848 "/> <circle style="fill:#D87D4A;" cx="110.744" cy="124.232" r="9.784"/> <circle style="fill:#8AD5DD;" cx="136.64" cy="124.232" r="9.784"/> <circle style="fill:#939393;" cx="162.6" cy="124.232" r="9.784"/> <g> <path style="fill:#333333;" d="M226.976,118.728l1.376,5.976c0.296,1.4,0.6,2.832,0.84,4.264h0.056 c0.272-1.432,0.704-2.896,1.08-4.24l1.704-6h2.704l1.648,5.84c0.4,1.544,0.752,2.976,1.056,4.408h0.056 c0.216-1.432,0.512-2.864,0.864-4.408l1.464-5.84h3.264l-4.136,13.16h-3.08l-1.56-5.352c-0.4-1.376-0.704-2.624-1-4.216h-0.056 c-0.272,1.624-0.616,2.92-1,4.216l-1.672,5.352h-3.112l-3.888-13.16H226.976z"/> <path style="fill:#333333;" d="M247.648,118.728l1.376,5.976c0.296,1.4,0.6,2.832,0.84,4.264h0.056 c0.272-1.432,0.704-2.896,1.08-4.24l1.704-6h2.704l1.648,5.84c0.4,1.544,0.752,2.976,1.056,4.408h0.056 c0.216-1.432,0.512-2.864,0.864-4.408l1.464-5.84h3.264l-4.136,13.16h-3.08l-1.568-5.352c-0.4-1.376-0.704-2.624-1-4.216h-0.056 c-0.272,1.624-0.616,2.92-1,4.216l-1.672,5.352h-3.112l-3.896-13.16H247.648z"/> <path style="fill:#333333;" d="M268.328,118.728l1.376,5.976c0.296,1.4,0.6,2.832,0.84,4.264h0.056 c0.272-1.432,0.704-2.896,1.08-4.24l1.704-6h2.704l1.648,5.84c0.4,1.544,0.752,2.976,1.056,4.408h0.056 c0.216-1.432,0.512-2.864,0.864-4.408l1.464-5.84h3.264l-4.136,13.16h-3.08l-1.56-5.352c-0.4-1.376-0.704-2.624-1-4.216h-0.056 c-0.272,1.624-0.616,2.92-1,4.216l-1.672,5.352h-3.112l-3.896-13.16H268.328z"/> <path style="fill:#333333;" d="M284.968,130.048c0-1.248,0.864-2.136,2.056-2.136c1.216,0,2.056,0.864,2.056,2.136 c0,1.216-0.808,2.136-2.056,2.136C285.816,132.176,284.968,131.256,284.968,130.048z"/> <polygon style="fill:#333333;" points="318.304,401.168 193.696,401.168 210.944,388.056 301.056,388.056 "/> <rect x="72" y="397.848" style="fill:#333333;" width="368" height="9.176"/> <polygon style="fill:#333333;" points="432.632,397.848 385.32,397.848 364.776,397.848 147.224,397.848 126.68,397.848 79.368,397.848 72,397.848 72,407.024 440,407.024 440,397.848 "/> <polygon style="fill:#333333;" points="388.504,134.008 386.448,131.992 393.56,124.696 386.024,117.344 388.032,115.288 397.624,124.632 "/> <rect x="375.04" y="123.224" style="fill:#333333;" width="18.984" height="2.872"/> </g> <path d="M324.04,320.656h-12V265.2c0-30.896-25.144-56.04-56.04-56.04s-56.04,25.144-56.04,56.04v55.456h-12V265.2 c0-37.512,30.52-68.04,68.04-68.04s68.04,30.52,68.04,68.04V320.656z"/> <g> <path style="fill:#333333;" d="M311.688,281.488v70.76c16.936-2.904,29.84-17.616,29.84-35.384 C341.528,299.104,328.624,284.384,311.688,281.488z"/> <path style="fill:#333333;" d="M200.312,281.488v70.76c-16.936-2.904-29.84-17.616-29.84-35.384 C170.472,299.104,183.376,284.384,200.312,281.488z"/> </g> <g> <path style="fill:#D87D4A;" d="M208.224,281.488h-7.912v70.76h7.912c2.328,0,4.24-1.904,4.24-4.24V285.72 C212.464,283.392,210.56,281.488,208.224,281.488z"/> <path style="fill:#D87D4A;" d="M303.776,281.488c-2.328,0-4.24,1.904-4.24,4.24v62.288c0,2.328,1.904,4.24,4.24,4.24h7.912v-70.76 h-7.912V281.488z"/> </g> </g>
</svg>